<?xml version="1.0" encoding="utf-8"?>
<!-- Generator: Adobe Illustrator 24.1.0, SVG Export Plug-In . SVG Version: 6.00 Build 0)  -->
<svg version="1.1" id="Ebene_1" xmlns="http://www.w3.org/2000/svg" xmlns:xlink="http://www.w3.org/1999/xlink" x="0px" y="0px"
	 viewBox="0 0 146.3 83.5" style="enable-background:new 0 0 146.3 83.5;" xml:space="preserve">
<style type="text/css">
	.st0{fill:#70B4DF;}
	.st1{fill-rule:evenodd;clip-rule:evenodd;fill:#5482A0;}
	.st2{fill-rule:evenodd;clip-rule:evenodd;fill:#395B71;}
	.st3{fill-rule:evenodd;clip-rule:evenodd;fill:#70B4DF;}
	.st4{fill-rule:evenodd;clip-rule:evenodd;fill:#1C88C6;}
	.st5{fill-rule:evenodd;clip-rule:evenodd;fill:#10182F;}
	.st6{fill-rule:evenodd;clip-rule:evenodd;fill:#FFFFFF;}
	.st7{fill:none;}
</style>
<g id="Gruppe_204" transform="translate(-162 -3801)">
	<path id="Pfad_1275" class="st0" d="M247.1,3840.7c0,0.9-0.3,1.9-1,2.6c-0.7,0.6-1.6,0.9-2.5,0.9c-1,0.1-1.9-0.4-2.6-1.1
		c-0.7-0.9-1-2-0.9-3.2v-1.7c-0.1-1.1,0.3-2.3,0.9-3.2c0.6-0.8,1.6-1.2,2.6-1.1c0.9-0.1,1.8,0.3,2.5,0.9c0.6,0.7,1,1.7,1,2.6h-2
		c0-0.5-0.1-1-0.3-1.5c-0.3-0.3-0.7-0.4-1.1-0.4c-0.5,0-0.9,0.2-1.1,0.6c-0.3,0.6-0.4,1.2-0.4,1.9v1.9c-0.1,0.7,0.1,1.4,0.3,2
		c0.2,0.4,0.7,0.6,1.1,0.6c0.4,0,0.8-0.1,1.1-0.4c0.2-0.4,0.4-0.9,0.3-1.4H247.1z M255.3,3844h-2v-4.3h-3v4.3h-2v-10h2v4h3v-4h2
		L255.3,3844z M261.8,3842H259l-0.5,2h-2.1l3.1-10h1.8l3.1,10h-2.2L261.8,3842z M259.5,3840.3h1.9l-0.9-3.5L259.5,3840.3z
		 M267.4,3842.3h3.5v1.7h-5.5v-10h2L267.4,3842.3z M274.1,3842.3h3.5v1.7h-5.5v-10h2L274.1,3842.3z M283.9,3839.7h-3.1v2.6h3.7v1.7
		h-5.7v-10h5.7v1.7h-3.7v2.4h3.1L283.9,3839.7z M292.6,3844h-2l-2.9-6.5v6.5h-2v-10h2l2.9,6.5v-6.5h2L292.6,3844z M301,3842.9
		c-0.4,0.4-0.9,0.7-1.4,0.9c-0.6,0.2-1.2,0.3-1.8,0.3c-1,0.1-2-0.3-2.7-1.1c-0.7-0.9-1-2-1-3.1v-1.8c-0.1-1.1,0.2-2.2,0.9-3.2
		c0.6-0.8,1.6-1.2,2.6-1.1c0.9-0.1,1.8,0.2,2.4,0.8c0.6,0.7,1,1.6,1,2.5h-2c0-0.5-0.1-0.9-0.4-1.3c-0.3-0.3-0.6-0.4-1-0.3
		c-0.5,0-0.9,0.2-1.2,0.6c-0.3,0.6-0.4,1.2-0.4,1.9v1.8c-0.1,0.7,0.1,1.4,0.4,2c0.3,0.4,0.8,0.7,1.3,0.6c0.3,0,0.7-0.1,1-0.2
		l0.2-0.1v-1.8h-1.4v-1.5h3.4V3842.9z M307.6,3839.7h-3.1v2.6h3.7v1.7h-5.7v-10h5.7v1.7h-3.7v2.4h3.1V3839.7z"/>
	<g id="logo_prize_ergo" transform="translate(133 3782)">
		<g id="Group-11">
			<g id="Group-10-Copy">
				<path id="Fill-3" class="st1" d="M60.4,72l-14.4,30.5l-5.3-10.8L29,94.5L43.4,64L60.4,72z"/>
				<path id="Fill-5" class="st2" d="M63,67l-12,25.4l-5.3-10.8L34,84.4L46,59L63,67z"/>
				<path id="Fill-7" class="st1" d="M59,72l14.4,30.5l5.3-10.8l11.7,2.8L75.9,64L59,72z"/>
				<path id="Fill-9" class="st2" d="M57,67l12,25.4l5.3-10.8L86,84.4L73.9,59L57,67z"/>
				<path id="Fill-11" class="st3" d="M87,36c-7.2-14.9-25.1-21.2-40-14S25.8,47.1,33,62c5,10.4,15.5,17,27,17h0.3
					c0.6,0,1.3,0,1.9-0.1c16.5-1.2,28.9-15.6,27.7-32.2C89.6,43,88.7,39.4,87,36"/>
				<path id="Fill-13" class="st4" d="M81.8,45.6c-0.4-2.8-1.2-5.5-2.6-8c-0.2-0.4-0.4-0.7-0.6-1c-1.2-1.9-2.7-3.7-4.4-5.1
					c-0.2-0.2-0.4-0.4-0.7-0.6c-9.7-7.7-23.9-6.1-31.6,3.6s-6.1,23.9,3.6,31.6c3.9,3.1,8.8,4.8,13.8,4.9h0.2
					C71.9,71,82,60.9,82,48.5c0-0.9-0.1-1.8-0.2-2.7C81.8,45.7,81.8,45.7,81.8,45.6z"/>
				<path id="Fill-15" class="st5" d="M76.5,46.1c-0.2-1.5-0.7-3-1.3-4.3c-1-2.2-2.5-4.1-4.3-5.7c-3.1-2.7-7-4.1-11-4.1
					C50.6,32,43,39.6,43,48.9s7.6,16.9,16.9,16.9c9.3,0,16.9-7.6,16.9-16.9C76.7,47.9,76.7,47,76.5,46.1"/>
				<path id="Fill-17" class="st6" d="M82.6,46c-1.4-0.3-2.3-1.6-2.3-3h-0.1c0,1.7-1.4,3.1-3.1,3.1c0,0,0,0,0,0v0
					c1.7,0,3.1,1.4,3.1,3.1c0,0,0,0,0,0h0.1c0-1.4,1-2.7,2.3-3c0.3-0.1,0.5-0.1,0.8-0.1v0C83.1,46.1,82.8,46.1,82.6,46"/>
				<path id="Fill-19" class="st6" d="M81.8,37.7c-1.1,0-2.1-0.2-3.1-0.6c-2.8-1.2-4.7-4-4.7-7.1h-0.3c0,0.5,0,1-0.1,1.4
					c-0.3,1.5-1,2.9-2.1,4c-0.3,0.3-0.6,0.5-0.9,0.8c-1.3,1-2.9,1.5-4.6,1.5c4.3,0,7.7,3.5,7.7,7.7H74c0-1.2,0.3-2.5,0.9-3.6
					c0.9-1.8,2.5-3.1,4.4-3.8C80.1,37.9,80.9,37.7,81.8,37.7"/>
				<g id="earth_icon" transform="translate(49.492 36.236)">
					<path id="Pfad_157" class="st0" d="M18.9,11.2c0,0.3,0.1,0.7,0.1,1c0,2-0.8,4-2.1,5.5c-0.3-0.8-1-1.4-1.9-1.4h-1v-3.1
						c0-0.6-0.5-1-1-1H6.8v-2h2c0.6,0,1-0.5,1-1v-2h2c1.1,0,2-0.9,2-2V2.5C8.5,0.8,2.8,3.8,1.1,9.1s1.3,11.1,6.6,12.7
						s11.1-1.3,12.7-6.6c0.3-1,0.5-2,0.5-3c0-0.3,0-0.7-0.1-1L18.9,11.2z M9.8,20.3c-4.1-0.5-7.1-4-7.1-8.1c0-0.6,0.1-1.2,0.2-1.8
						l4.9,4.9v1c0,1.1,0.9,2,2,2V20.3z"/>
					<path id="Pfad_158" class="st7" d="M0,0h23v23H0V0z"/>
					<path id="circle" class="st0" d="M10.8,22.4c-2,0-4-0.6-5.7-1.7c-1.6-1.1-2.9-2.7-3.7-4.5c-1.3-3.2-1-6.8,0.9-9.6
						c1.1-1.6,2.7-2.9,4.5-3.7c3.2-1.3,6.8-1,9.6,0.9c1.6,1.1,2.9,2.7,3.7,4.5c1.3,3.2,1,6.8-0.9,9.6c-1.1,1.6-2.7,2.9-4.5,3.7
						C13.5,22.1,12.2,22.4,10.8,22.4z M10.8,4.1c-1.6,0-3.2,0.5-4.5,1.4C5,6.4,4,7.6,3.4,9.1c-1.1,2.5-0.8,5.4,0.7,7.7
						C5,18,6.2,19,7.7,19.6c2.5,1.1,5.4,0.8,7.7-0.7c1.3-0.9,2.3-2.1,2.9-3.6c1.1-2.5,0.8-5.4-0.7-7.7c-0.9-1.3-2.1-2.3-3.6-2.9
						C13,4.4,11.9,4.1,10.8,4.1z"/>
				</g>
			</g>
		</g>
	</g>
	<g>
		<path class="st0" d="M244.8,3819.3h-2.3v7.7h-1.9v-7.7h-2.2v-1.6h6.4V3819.3z"/>
		<path class="st0" d="M250.3,3823h-2.9v2.5h3.4v1.5h-5.3v-9.2h5.3v1.6h-3.4v2.2h2.9V3823z"/>
		<path class="st0" d="M257.9,3823.9c0,1.1-0.3,1.9-0.9,2.4s-1.3,0.8-2.3,0.8c-1,0-1.8-0.3-2.4-1c-0.6-0.7-0.8-1.7-0.8-2.9v-1.6
			c0-1.3,0.3-2.2,0.9-2.9c0.6-0.7,1.4-1,2.4-1c1,0,1.8,0.3,2.3,0.8c0.5,0.6,0.8,1.4,0.9,2.4H256c0-0.7-0.1-1.1-0.3-1.3
			c-0.2-0.2-0.5-0.4-1-0.4c-0.5,0-0.9,0.2-1.1,0.5c-0.2,0.3-0.3,0.9-0.3,1.7v1.7c0,0.9,0.1,1.5,0.3,1.9c0.2,0.3,0.6,0.5,1.1,0.5
			c0.5,0,0.8-0.1,1-0.4c0.2-0.2,0.3-0.7,0.3-1.3H257.9z"/>
		<path class="st0" d="M265.2,3827h-1.9v-4h-2.8v4h-1.9v-9.2h1.9v3.7h2.8v-3.7h1.9V3827z"/>
		<path class="st0" d="M272.8,3827H271l-2.7-6.1v6.1h-1.9v-9.2h1.9l2.7,6.1v-6.1h1.9V3827z"/>
		<path class="st0" d="M280.5,3823.2c0,1.2-0.3,2.2-0.9,2.9c-0.6,0.7-1.4,1-2.4,1c-1,0-1.9-0.3-2.4-1c-0.6-0.7-0.9-1.6-0.9-2.9v-1.6
			c0-1.3,0.3-2.3,0.9-3c0.6-0.7,1.4-1.1,2.5-1.1c1,0,1.8,0.4,2.4,1.1c0.6,0.7,0.9,1.7,0.9,2.9V3823.2z M278.6,3821.7
			c0-0.8-0.1-1.5-0.4-1.9c-0.2-0.4-0.6-0.6-1.1-0.6c-0.5,0-0.9,0.2-1.1,0.6c-0.2,0.4-0.4,1-0.4,1.8v1.6c0,0.8,0.1,1.4,0.4,1.8
			s0.6,0.6,1.1,0.6c0.5,0,0.8-0.2,1.1-0.6c0.2-0.4,0.4-1,0.4-1.7V3821.7z"/>
		<path class="st0" d="M283.4,3825.5h3.3v1.5h-5.1v-9.2h1.9V3825.5z"/>
		<path class="st0" d="M293.5,3823.2c0,1.2-0.3,2.2-0.9,2.9s-1.4,1-2.4,1c-1,0-1.9-0.3-2.4-1c-0.6-0.7-0.9-1.6-0.9-2.9v-1.6
			c0-1.3,0.3-2.3,0.9-3c0.6-0.7,1.4-1.1,2.5-1.1c1,0,1.8,0.4,2.4,1.1c0.6,0.7,0.9,1.7,0.9,2.9V3823.2z M291.6,3821.7
			c0-0.8-0.1-1.5-0.4-1.9c-0.2-0.4-0.6-0.6-1.1-0.6c-0.5,0-0.9,0.2-1.1,0.6c-0.2,0.4-0.4,1-0.4,1.8v1.6c0,0.8,0.1,1.4,0.4,1.8
			s0.6,0.6,1.1,0.6c0.5,0,0.8-0.2,1.1-0.6c0.2-0.4,0.4-1,0.4-1.7V3821.7z"/>
		<path class="st0" d="M300.8,3826c-0.4,0.4-0.8,0.7-1.3,0.9c-0.5,0.2-1.1,0.3-1.7,0.3c-1.1,0-1.9-0.3-2.5-1
			c-0.6-0.7-0.9-1.6-0.9-2.9v-1.7c0-1.3,0.3-2.3,0.8-2.9c0.6-0.7,1.4-1,2.4-1c1,0,1.8,0.2,2.3,0.7c0.5,0.5,0.8,1.3,0.9,2.3H299
			c-0.1-0.6-0.2-1-0.4-1.2c-0.2-0.2-0.5-0.3-0.9-0.3c-0.5,0-0.9,0.2-1.1,0.6c-0.2,0.4-0.3,1-0.4,1.8v1.7c0,0.8,0.1,1.5,0.4,1.8
			s0.7,0.6,1.2,0.6c0.4,0,0.7-0.1,0.9-0.2l0.2-0.1v-1.7h-1.3v-1.4h3.2V3826z"/>
		<path class="st0" d="M304.6,3821.9l1.4-4.2h2l-2.5,5.9v3.4h-1.9v-3.4l-2.5-5.9h2L304.6,3821.9z"/>
	</g>
</g>
</svg>
