<?xml version="1.0" encoding="UTF-8" standalone="no"?>
<!-- Created with Inkscape (http://www.inkscape.org/) -->
<svg
   xmlns:svg="http://www.w3.org/2000/svg"
   xmlns="http://www.w3.org/2000/svg"
   version="1.0"
   width="730"
   height="95"
   id="svg3436">
  <defs
     id="defs3438" />
  <g
     transform="translate(30.428571,-112.36216)"
     id="logo">
    <g
       transform="matrix(1.2740762,0,0,1.2740762,-190.43024,-64.96562)"
       id="schrift">
      <g
         id="text">
        <path
           d="M 337.22665,207.83433 L 343.52051,187.37928 L 345.09398,181.08542 L 345.48734,181.08542 L 345.88071,187.37928 L 348.43759,207.83433 L 358.66511,207.83433 L 352.9613,164.76073 L 342.93046,164.76073 L 334.86645,190.32953 L 332.70294,197.80349 L 330.73611,190.32953 L 322.86879,164.76073 L 312.83795,164.76073 L 307.13414,207.83433 L 316.18156,207.83433 L 318.73844,187.37928 L 319.13181,181.08542 L 319.52517,181.08542 L 321.09864,187.37928 L 327.3925,207.83433 L 337.22665,207.83433 M 374.79312,200.36037 L 390.92114,200.36037 L 393.28134,207.83433 L 404.88564,207.83433 L 387.97089,164.76073 L 378.13674,164.76073 L 362.00872,207.83433 L 372.23624,207.83433 L 374.79312,200.36037 z M 387.97089,192.49304 L 377.74337,192.49304 L 380.49693,183.6423 L 383.05382,176.16835 L 383.44718,178.52854 L 385.02065,183.6423 L 387.97089,192.49304 M 448.15592,207.83433 L 448.15592,164.76073 L 439.1085,164.76073 L 439.1085,192.49304 L 437.9284,189.93616 L 434.58479,184.8224 L 421.01365,164.76073 L 410.58945,164.76073 L 410.58945,207.83433 L 419.63687,207.83433 L 419.63687,185.21577 L 419.24351,179.51196 L 419.63687,179.51196 L 421.01365,181.47879 L 423.76722,186.19918 L 439.1085,207.83433 L 448.15592,207.83433 M 495.94992,207.83433 L 495.94992,164.76073 L 486.90249,164.76073 L 486.90249,192.49304 L 485.7224,189.93616 L 482.37878,184.8224 L 468.41428,164.76073 L 457.99008,164.76073 L 457.99008,207.83433 L 467.43087,207.83433 L 467.43087,185.21577 L 467.0375,179.51196 L 467.43087,179.51196 L 468.41428,181.47879 L 471.56121,186.19918 L 486.90249,207.83433 L 495.94992,207.83433 M 543.74391,207.83433 L 543.74391,164.76073 L 533.51639,164.76073 L 533.51639,181.08542 L 516.20828,181.08542 L 516.20828,164.76073 L 505.78407,164.76073 L 505.78407,207.83433 L 516.20828,207.83433 L 516.20828,189.93616 L 533.51639,189.93616 L 533.51639,207.83433 L 543.74391,207.83433 M 579.34355,207.83433 L 579.34355,199.18027 L 564.00227,199.18027 L 564.00227,189.5428 L 577.18004,189.5428 L 577.18004,181.47879 L 564.00227,181.47879 L 564.00227,173.2181 L 578.7535,173.2181 L 578.7535,164.76073 L 553.77475,164.76073 L 553.77475,207.83433 L 579.34355,207.83433 M 588.39098,207.83433 L 598.6185,207.83433 L 598.6185,164.76073 L 588.39098,164.76073 L 588.39098,207.83433 z M 636.9717,207.83433 L 643.06888,187.37928 L 644.83903,181.08542 L 648.18264,207.83433 L 658.41016,207.83433 L 652.70635,164.76073 L 642.67551,164.76073 L 634.41482,190.32953 L 632.44799,197.80349 L 630.28448,190.32953 L 622.61384,164.76073 L 612.583,164.76073 L 606.48582,207.83433 L 615.92661,207.83433 L 618.48349,187.37928 L 618.87686,181.08542 L 620.45032,187.37928 L 626.74418,207.83433 L 636.9717,207.83433"
           style="fill:#000000;fill-rule:nonzero;stroke:none"
           id="text_mannheim" />
        <path
           d="M 153.72132,197.01675 L 153.72132,197.01675 L 153.32795,194.06651 L 152.54122,191.50963 L 151.36112,189.5428 L 149.59097,187.77265 L 148.01751,186.59255 L 146.05067,185.21577 L 141.92033,183.24894 L 138.97008,181.47879 L 136.4132,179.90532 L 135.2331,178.52854 L 134.83974,177.74181 L 134.44637,176.16835 L 134.053,174.79156 L 134.44637,173.2181 L 134.83974,171.84132 L 135.2331,171.05459 L 136.01984,170.26785 L 137.39662,169.48112 L 138.57672,168.4977 L 141.33028,168.10434 L 144.67389,168.4977 L 146.83741,169.48112 L 148.80424,170.26785 L 150.18102,171.05459 L 152.54122,167.31761 L 151.36112,166.53087 L 148.80424,165.15409 L 145.46062,164.36736 L 141.33028,163.97399 L 138.97008,164.36736 L 136.80657,164.76073 L 134.83974,165.74414 L 132.67622,166.92424 L 131.49612,168.4977 L 130.31603,170.26785 L 129.52929,172.82473 L 129.13593,174.79156 L 129.52929,177.34844 L 129.92266,179.51196 L 131.10276,181.08542 L 132.28286,182.85557 L 133.65964,184.03567 L 135.2331,185.21577 L 138.97008,187.37928 L 142.70706,189.14943 L 146.05067,191.11626 L 147.23077,192.49304 L 148.01751,193.67314 L 148.41087,195.24661 L 148.80424,197.01675 L 148.41087,198.19685 L 148.01751,199.967 L 147.62414,201.1471 L 146.44404,201.93383 L 145.06726,202.91725 L 143.49379,203.70398 L 141.92033,204.09735 L 140.15018,204.49071 L 138.18335,204.09735 L 136.4132,203.70398 L 133.65964,202.91725 L 131.49612,201.54047 L 130.31603,200.36037 L 127.75915,204.09735 L 129.52929,205.27745 L 131.88949,207.04759 L 135.62647,207.83433 L 137.78998,208.22769 L 139.75681,208.62106 L 143.10043,208.22769 L 145.46062,207.83433 L 148.01751,206.65423 L 150.18102,205.27745 L 151.75448,203.70398 L 152.93458,201.54047 L 153.32795,199.57364 L 153.72132,197.01675 M 187.15744,169.08775 L 187.15744,164.76073 L 157.85166,164.76073 L 157.85166,169.08775 L 170.2427,169.08775 L 170.2427,207.83433 L 175.15977,207.83433 L 175.15977,169.08775 L 187.15744,169.08775 M 195.8115,197.01675 L 215.28313,197.01675 L 219.02011,207.83433 L 224.33055,207.83433 L 208.20254,164.76073 L 203.28546,164.76073 L 187.15744,207.83433 L 192.07452,207.83433 L 195.8115,197.01675 z M 213.51298,192.88641 L 197.58165,192.88641 L 202.89209,178.13518 L 205.64565,170.66122 L 208.20254,178.13518 L 213.51298,192.88641 M 265.43732,185.80582 L 265.43732,185.80582 L 265.04395,181.47879 L 264.25722,177.34844 L 262.68376,173.61147 L 259.73351,170.66122 L 256.3899,168.10434 L 252.25955,166.53087 L 247.34247,165.15409 L 241.63866,164.76073 L 231.80451,164.76073 L 231.80451,207.83433 L 241.2453,207.83433 L 247.34247,207.44096 L 252.25955,206.26086 L 254.42306,204.88408 L 256.3899,204.09735 L 259.73351,201.54047 L 262.29039,198.19685 L 264.25722,194.45987 L 265.04395,190.32953 L 265.43732,185.80582 z M 260.52024,185.80582 L 260.52024,185.80582 L 260.12687,189.93616 L 259.34014,193.67314 L 257.76668,196.62339 L 255.60316,199.18027 L 253.24297,201.1471 L 249.89935,202.52388 L 246.16237,203.31061 L 241.63866,203.70398 L 236.72159,203.70398 L 236.72159,169.08775 L 241.63866,169.08775 L 246.16237,169.48112 L 249.89935,169.87449 L 253.24297,171.05459 L 255.60316,173.2181 L 257.76668,175.18493 L 259.34014,178.13518 L 260.12687,181.87216 L 260.52024,185.80582 M 297.69335,169.08775 L 297.69335,164.76073 L 268.78093,164.76073 L 268.78093,169.08775 L 280.7786,169.08775 L 280.7786,207.83433 L 285.69568,207.83433 L 285.69568,169.08775 L 297.69335,169.08775"
           style="fill:#e50000;fill-rule:nonzero;stroke:none"
           id="text_stadt" />
      </g>
      <g
         id="quadrat">
        <path
           d="M 667.06422,144.30568 L 696.37,144.30568 L 696.37,174.3982 L 667.06422,174.3982 L 667.06422,144.30568 z "
           style="fill:#e50000;fill-rule:nonzero;stroke:none"
           id="q_box" />
        <path
           d="M 691.45292,169.48112 L 691.45292,164.36736 L 681.42209,164.36736 L 684.37233,162.40053 L 687.32258,160.23701 L 688.10931,159.05692 L 688.89604,157.28677 L 689.68278,156.10667 L 689.68278,153.15642 L 688.89604,151.38627 L 688.50268,150.59954 L 687.32258,149.81281 L 685.9458,149.02608 L 684.37233,148.43603 L 681.02872,148.04266 L 678.27516,148.43603 L 675.71828,149.41944 L 673.75144,150.20618 L 671.9813,151.38627 L 674.93154,155.7133 L 676.89837,153.94315 L 678.27516,153.54979 L 679.84862,153.15642 L 681.02872,153.54979 L 682.4055,153.94315 L 682.79887,154.72989 L 683.19223,155.7133 L 682.79887,156.8934 L 681.81545,158.46687 L 679.06189,161.02375 L 675.32491,163.97399 L 671.58793,166.53087 L 671.58793,169.48112 L 691.45292,169.48112"
           style="fill:#ffffff;fill-rule:nonzero;stroke:none"
           id="q_2" />
      </g>
    </g>
  </g>
</svg>
